<mxfile host="app.diagrams.net" modified="2024-04-22T17:46:38.894Z" agent="Mozilla/5.0 (Windows NT 10.0; Win64; x64; rv:125.0) Gecko/20100101 Firefox/125.0" etag="XyiGtyiXI2NNkyDNeMKE" version="24.2.8" type="device">
  <diagram name="Page-1" id="vdgEpPSCTGe97njbxjlq">
    <mxGraphModel dx="1112" dy="1231" grid="0" gridSize="10" guides="1" tooltips="1" connect="1" arrows="1" fold="1" page="0" pageScale="1" pageWidth="850" pageHeight="1100" math="0" shadow="0">
      <root>
        <mxCell id="0" />
        <mxCell id="1" parent="0" />
        <mxCell id="iHlADKhTmx6_1Dyb3h9l-10" value="" style="rounded=0;whiteSpace=wrap;html=1;" vertex="1" parent="1">
          <mxGeometry x="-15" y="-152" width="360" height="725" as="geometry" />
        </mxCell>
        <mxCell id="iHlADKhTmx6_1Dyb3h9l-1" value="Diseño de Calíope" style="rounded=0;whiteSpace=wrap;html=1;" vertex="1" parent="1">
          <mxGeometry x="105" y="-91" width="120" height="60" as="geometry" />
        </mxCell>
        <mxCell id="iHlADKhTmx6_1Dyb3h9l-2" value="Desarrollo del Frontend" style="rounded=0;whiteSpace=wrap;html=1;" vertex="1" parent="1">
          <mxGeometry x="105" y="45" width="120" height="60" as="geometry" />
        </mxCell>
        <mxCell id="iHlADKhTmx6_1Dyb3h9l-3" value="Desarrollo del Backend" style="rounded=0;whiteSpace=wrap;html=1;" vertex="1" parent="1">
          <mxGeometry x="105" y="181" width="120" height="60" as="geometry" />
        </mxCell>
        <mxCell id="iHlADKhTmx6_1Dyb3h9l-4" value="Enlazamiento y Pruebas" style="rounded=0;whiteSpace=wrap;html=1;" vertex="1" parent="1">
          <mxGeometry x="105" y="453" width="120" height="60" as="geometry" />
        </mxCell>
        <mxCell id="iHlADKhTmx6_1Dyb3h9l-5" value="Pruebas de Backend" style="rounded=0;whiteSpace=wrap;html=1;" vertex="1" parent="1">
          <mxGeometry x="105" y="317" width="120" height="60" as="geometry" />
        </mxCell>
        <mxCell id="iHlADKhTmx6_1Dyb3h9l-6" value="" style="endArrow=classic;html=1;rounded=0;fontSize=12;startSize=8;endSize=8;curved=1;exitX=0.5;exitY=1;exitDx=0;exitDy=0;entryX=0.5;entryY=0;entryDx=0;entryDy=0;" edge="1" parent="1" source="iHlADKhTmx6_1Dyb3h9l-1" target="iHlADKhTmx6_1Dyb3h9l-2">
          <mxGeometry width="50" height="50" relative="1" as="geometry">
            <mxPoint x="175" y="225" as="sourcePoint" />
            <mxPoint x="225" y="175" as="targetPoint" />
          </mxGeometry>
        </mxCell>
        <mxCell id="iHlADKhTmx6_1Dyb3h9l-7" value="" style="endArrow=classic;html=1;rounded=0;fontSize=12;startSize=8;endSize=8;curved=1;exitX=0.5;exitY=1;exitDx=0;exitDy=0;entryX=0.5;entryY=0;entryDx=0;entryDy=0;" edge="1" parent="1">
          <mxGeometry width="50" height="50" relative="1" as="geometry">
            <mxPoint x="164.5" y="105" as="sourcePoint" />
            <mxPoint x="164.5" y="181" as="targetPoint" />
          </mxGeometry>
        </mxCell>
        <mxCell id="iHlADKhTmx6_1Dyb3h9l-8" value="" style="endArrow=classic;html=1;rounded=0;fontSize=12;startSize=8;endSize=8;curved=1;exitX=0.5;exitY=1;exitDx=0;exitDy=0;entryX=0.5;entryY=0;entryDx=0;entryDy=0;" edge="1" parent="1">
          <mxGeometry width="50" height="50" relative="1" as="geometry">
            <mxPoint x="164.5" y="241" as="sourcePoint" />
            <mxPoint x="164.5" y="317" as="targetPoint" />
          </mxGeometry>
        </mxCell>
        <mxCell id="iHlADKhTmx6_1Dyb3h9l-9" value="" style="endArrow=classic;html=1;rounded=0;fontSize=12;startSize=8;endSize=8;curved=1;exitX=0.5;exitY=1;exitDx=0;exitDy=0;entryX=0.5;entryY=0;entryDx=0;entryDy=0;" edge="1" parent="1">
          <mxGeometry width="50" height="50" relative="1" as="geometry">
            <mxPoint x="164.5" y="377" as="sourcePoint" />
            <mxPoint x="164.5" y="453" as="targetPoint" />
          </mxGeometry>
        </mxCell>
      </root>
    </mxGraphModel>
  </diagram>
</mxfile>
